ffmpeg started on 2025-05-13 at 09:50:05
Report written to "D:\Convert\FFMetrics\reports\psnr_report-6.txt"
Log level: 32
Command line:
ffmpeg -hide_banner -nostdin -i "G:\\\xc0\xed\xe8\xec\xe5\\\xce\xed\xe3\xee\xe8\xed\xe3\xe8\\!_35_\xcb\xe5\xf2\xee_2024\\DreamCast-1\\\xd1\xeb\xe8\xf8\xea\xee\xec \xec\xed\xee\xe3\xee \xef\xf0\xee\xe8\xe3\xf0\xe0\xe2\xf8\xe8\xf5 \xe3\xe5\xf0\xee\xe8\xed\xfc!\\[DC] Make Heroine ga Oosugiru - 08_Telegram_HEVC.mkv" -i "G:\\\xc0\xed\xe8\xec\xe5\\\xce\xed\xe3\xee\xe8\xed\xe3\xe8\\!_35_\xcb\xe5\xf2\xee_2024\\DreamCast-1\\\xd1\xeb\xe8\xf8\xea\xee\xec \xec\xed\xee\xe3\xee \xef\xf0\xee\xe8\xe3\xf0\xe0\xe2\xf8\xe8\xf5 \xe3\xe5\xf0\xee\xe8\xed\xfc!\\[DC] Make Heroine ga Oosugiru - 08_Telegram.mp4" -lavfi "[0:v]settb=AVTB,setpts=PTS-STARTPTS,format=pix_fmts=yuv420p10,fps=24000/1001,scale=1920:1080:flags=bicubic[main];[1:v]settb=AVTB,setpts=PTS-STARTPTS,format=pix_fmts=yuv420p,fps=24000/1001,scale=1920:1080:flags=bicubic[ref];[main][ref]psnr=eof_action=endall:stats_file='D\\:/Convert/FFMetrics/logs/psnr_logfile-6.txt'" -f null -
Input #0, matroska,webm, from 'G:\Аниме\Онгоинги\!_35_Лето_2024\DreamCast-1\Слишком много проигравших героинь!\[DC] Make Heroine ga Oosugiru - 08_Telegram_HEVC.mkv':
  Metadata:
    COMPATIBLE_BRANDS: isomiso2avc1mp41
    MAJOR_BRAND     : isom
    MINOR_VERSION   : 512
    ENCODER         : Lavf61.7.100
  Duration: 00:24:06.79, start: -0.021000, bitrate: 1032 kb/s
  Stream #0:0: Video: hevc (Main 10), yuv420p10le(tv, bt709, progressive), 1920x1080 [SAR 1:1 DAR 16:9], 23.98 fps, 23.98 tbr, 1k tbn (default)
      Metadata:
        HANDLER_NAME    : VideoHandler
        VENDOR_ID       : [0][0][0][0]
        ENCODER         : Lavc61.19.100 libx265
        BPS             : 835532
        DURATION        : 00:24:06.611708333
        NUMBER_OF_FRAMES: 34684
        NUMBER_OF_BYTES : 151086337
        _STATISTICS_WRITING_APP: mkvpropedit v66.0.0 ('Josie') 64-bit
        _STATISTICS_WRITING_DATE_UTC: 2025-05-11 10:53:01
        _STATISTICS_TAGS: BPS DURATION NUMBER_OF_FRAMES NUMBER_OF_BYTES
  Stream #0:1: Audio: aac (LC), 48000 Hz, stereo, fltp (default)
      Metadata:
        HANDLER_NAME    : SoundHandler
        VENDOR_ID       : [0][0][0][0]
        ENCODER         : Lavc61.19.100 aac
        BPS             : 193095
        DURATION        : 00:24:06.784000000
        NUMBER_OF_FRAMES: 67819
        NUMBER_OF_BYTES : 34921021
        _STATISTICS_WRITING_APP: mkvpropedit v66.0.0 ('Josie') 64-bit
        _STATISTICS_WRITING_DATE_UTC: 2025-05-11 10:53:01
        _STATISTICS_TAGS: BPS DURATION NUMBER_OF_FRAMES NUMBER_OF_BYTES
Input #1, mov,mp4,m4a,3gp,3g2,mj2, from 'G:\Аниме\Онгоинги\!_35_Лето_2024\DreamCast-1\Слишком много проигравших героинь!\[DC] Make Heroine ga Oosugiru - 08_Telegram.mp4':
  Metadata:
    major_brand     : isom
    minor_version   : 512
    compatible_brands: isomiso2avc1mp41
    encoder         : Lavf61.1.100
  Duration: 00:24:06.74, start: 0.000000, bitrate: 3674 kb/s
  Stream #1:0[0x1](und): Video: h264 (High) (avc1 / 0x31637661), yuv420p(tv, bt709, progressive), 1920x1080 [SAR 1:1 DAR 16:9], 3526 kb/s, 23.98 fps, 23.98 tbr, 24k tbn (default)
      Metadata:
        handler_name    : VideoHandler
        vendor_id       : [0][0][0][0]
        encoder         : Lavc61.3.100 h264_qsv
  Stream #1:1[0x2](und): Audio: aac (HE-AACv2) (mp4a / 0x6134706D), 48000 Hz, stereo, fltp, 144 kb/s (default)
      Metadata:
        handler_name    : SoundHandler
        vendor_id       : [0][0][0][0]
Stream mapping:
  Stream #0:0 (hevc) -> settb:default
  Stream #1:0 (h264) -> settb:default
  psnr:default -> Stream #0:0 (wrapped_avframe)
  Stream #0:1 -> #0:1 (aac (native) -> pcm_s16le (native))
Output #0, null, to 'pipe:':
  Metadata:
    COMPATIBLE_BRANDS: isomiso2avc1mp41
    MAJOR_BRAND     : isom
    MINOR_VERSION   : 512
    encoder         : Lavf61.7.100
  Stream #0:0: Video: wrapped_avframe, yuv420p10le(tv, bt709, progressive), 1920x1080 [SAR 1:1 DAR 16:9], q=2-31, 200 kb/s, 23.98 fps, 23.98 tbn
      Metadata:
        encoder         : Lavc61.19.100 wrapped_avframe
  Stream #0:1: Audio: pcm_s16le, 48000 Hz, stereo, s16, 1536 kb/s (default)
      Metadata:
        HANDLER_NAME    : SoundHandler
        VENDOR_ID       : [0][0][0][0]
        _STATISTICS_TAGS: BPS DURATION NUMBER_OF_FRAMES NUMBER_OF_BYTES
        BPS             : 193095
        DURATION        : 00:24:06.784000000
        NUMBER_OF_FRAMES: 67819
        NUMBER_OF_BYTES : 34921021
        _STATISTICS_WRITING_APP: mkvpropedit v66.0.0 ('Josie') 64-bit
        _STATISTICS_WRITING_DATE_UTC: 2025-05-11 10:53:01
        encoder         : Lavc61.19.100 pcm_s16le
frame=  172 fps=0.0 q=-0.0 size=N/A time=00:00:07.17 bitrate=N/A speed=  14x    frame=  447 fps=431 q=-0.0 size=N/A time=00:00:18.64 bitrate=N/A speed=  18x    frame=  712 fps=461 q=-0.0 size=N/A time=00:00:29.69 bitrate=N/A speed=19.2x    frame=  993 fps=480 q=-0.0 size=N/A time=00:00:41.41 bitrate=N/A speed=  20x    frame= 1259 fps=487 q=-0.0 size=N/A time=00:00:52.51 bitrate=N/A speed=20.3x    frame= 1505 fps=486 q=-0.0 size=N/A time=00:01:02.77 bitrate=N/A speed=20.3x    frame= 1755 fps=485 q=-0.0 size=N/A time=00:01:13.19 bitrate=N/A speed=20.2x    frame= 2022 fps=490 q=-0.0 size=N/A time=00:01:24.33 bitrate=N/A speed=20.5x    frame= 2194 fps=472 q=-0.0 size=N/A time=00:01:31.50 bitrate=N/A speed=19.7x    frame= 2375 fps=461 q=-0.0 size=N/A time=00:01:39.05 bitrate=N/A speed=19.2x    frame= 2561 fps=451 q=-0.0 size=N/A time=00:01:46.81 bitrate=N/A speed=18.8x    frame= 2736 fps=442 q=-0.0 size=N/A time=00:01:54.11 bitrate=N/A speed=18.4x    frame= 2906 fps=432 q=-0.0 size=N/A time=00:02:01.20 bitrate=N/A speed=  18x    frame= 3100 fps=428 q=-0.0 size=N/A time=00:02:09.29 bitrate=N/A speed=17.8x    frame= 3267 fps=421 q=-0.0 size=N/A time=00:02:16.26 bitrate=N/A speed=17.5x    frame= 3423 fps=413 q=-0.0 size=N/A time=00:02:22.76 bitrate=N/A speed=17.2x    frame= 3593 fps=409 q=-0.0 size=N/A time=00:02:29.85 bitrate=N/A speed=  17x    frame= 3755 fps=403 q=-0.0 size=N/A time=00:02:36.61 bitrate=N/A speed=16.8x    frame= 3948 fps=402 q=-0.0 size=N/A time=00:02:44.66 bitrate=N/A speed=16.8x    frame= 4168 fps=403 q=-0.0 size=N/A time=00:02:53.84 bitrate=N/A speed=16.8x    frame= 4442 fps=409 q=-0.0 size=N/A time=00:03:05.26 bitrate=N/A speed=17.1x    frame= 4710 fps=414 q=-0.0 size=N/A time=00:03:16.44 bitrate=N/A speed=17.3x    frame= 4979 fps=418 q=-0.0 size=N/A time=00:03:27.66 bitrate=N/A speed=17.5x    frame= 5255 fps=424 q=-0.0 size=N/A time=00:03:39.17 bitrate=N/A speed=17.7x    frame= 5541 fps=429 q=-0.0 size=N/A time=00:03:51.10 bitrate=N/A speed=17.9x    frame= 5819 fps=433 q=-0.0 size=N/A time=00:04:02.70 bitrate=N/A speed=  18x    frame= 6090 fps=437 q=-0.0 size=N/A time=00:04:14.04 bitrate=N/A speed=18.2x    frame= 6362 fps=440 q=-0.0 size=N/A time=00:04:25.34 bitrate=N/A speed=18.3x    frame= 6626 fps=442 q=-0.0 size=N/A time=00:04:36.35 bitrate=N/A speed=18.4x    frame= 6872 fps=443 q=-0.0 size=N/A time=00:04:46.61 bitrate=N/A speed=18.5x    frame= 7135 fps=446 q=-0.0 size=N/A time=00:04:57.58 bitrate=N/A speed=18.6x    frame= 7411 fps=448 q=-0.0 size=N/A time=00:05:09.10 bitrate=N/A speed=18.7x    frame= 7681 fps=451 q=-0.0 size=N/A time=00:05:20.36 bitrate=N/A speed=18.8x    frame= 7960 fps=453 q=-0.0 size=N/A time=00:05:31.99 bitrate=N/A speed=18.9x    frame= 8229 fps=455 q=-0.0 size=N/A time=00:05:43.21 bitrate=N/A speed=  19x    frame= 8470 fps=455 q=-0.0 size=N/A time=00:05:53.26 bitrate=N/A speed=  19x    frame= 8724 fps=457 q=-0.0 size=N/A time=00:06:03.86 bitrate=N/A speed=  19x    frame= 8980 fps=458 q=-0.0 size=N/A time=00:06:14.54 bitrate=N/A speed=19.1x    frame= 9225 fps=458 q=-0.0 size=N/A time=00:06:24.75 bitrate=N/A speed=19.1x    frame= 9439 fps=457 q=-0.0 size=N/A time=00:06:33.72 bitrate=N/A speed=19.1x    frame= 9699 fps=458 q=-0.0 size=N/A time=00:06:44.52 bitrate=N/A speed=19.1x    frame= 9951 fps=459 q=-0.0 size=N/A time=00:06:55.03 bitrate=N/A speed=19.1x    frame=10217 fps=460 q=-0.0 size=N/A time=00:07:06.13 bitrate=N/A speed=19.2x    frame=10495 fps=462 q=-0.0 size=N/A time=00:07:17.72 bitrate=N/A speed=19.3x    frame=10761 fps=463 q=-0.0 size=N/A time=00:07:28.82 bitrate=N/A speed=19.3x    frame=11032 fps=465 q=-0.0 size=N/A time=00:07:40.12 bitrate=N/A speed=19.4x    frame=11310 fps=466 q=-0.0 size=N/A time=00:07:51.72 bitrate=N/A speed=19.4x    frame=11557 fps=466 q=-0.0 size=N/A time=00:08:02.02 bitrate=N/A speed=19.4x    frame=11831 fps=468 q=-0.0 size=N/A time=00:08:13.45 bitrate=N/A speed=19.5x    frame=12064 fps=467 q=-0.0 size=N/A time=00:08:23.16 bitrate=N/A speed=19.5x    frame=12304 fps=467 q=-0.0 size=N/A time=00:08:33.17 bitrate=N/A speed=19.5x    frame=12550 fps=467 q=-0.0 size=N/A time=00:08:43.43 bitrate=N/A speed=19.5x    frame=12796 fps=468 q=-0.0 size=N/A time=00:08:53.69 bitrate=N/A speed=19.5x    frame=13084 fps=469 q=-0.0 size=N/A time=00:09:05.71 bitrate=N/A speed=19.6x    frame=13356 fps=470 q=-0.0 size=N/A time=00:09:17.05 bitrate=N/A speed=19.6x    frame=13617 fps=471 q=-0.0 size=N/A time=00:09:27.94 bitrate=N/A speed=19.6x    frame=13875 fps=472 q=-0.0 size=N/A time=00:09:38.70 bitrate=N/A speed=19.7x    frame=14139 fps=472 q=-0.0 size=N/A time=00:09:49.71 bitrate=N/A speed=19.7x    frame=14402 fps=473 q=-0.0 size=N/A time=00:10:00.68 bitrate=N/A speed=19.7x    frame=14665 fps=474 q=-0.0 size=N/A time=00:10:11.65 bitrate=N/A speed=19.8x    frame=14933 fps=474 q=-0.0 size=N/A time=00:10:22.83 bitrate=N/A speed=19.8x    frame=15199 fps=475 q=-0.0 size=N/A time=00:10:33.92 bitrate=N/A speed=19.8x    frame=15477 fps=476 q=-0.0 size=N/A time=00:10:45.51 bitrate=N/A speed=19.9x    frame=15759 fps=477 q=-0.0 size=N/A time=00:10:57.28 bitrate=N/A speed=19.9x    frame=16022 fps=478 q=-0.0 size=N/A time=00:11:08.25 bitrate=N/A speed=19.9x    frame=16292 fps=478 q=-0.0 size=N/A time=00:11:19.51 bitrate=N/A speed=19.9x    frame=16532 fps=478 q=-0.0 size=N/A time=00:11:29.52 bitrate=N/A speed=19.9x    frame=16803 fps=479 q=-0.0 size=N/A time=00:11:40.82 bitrate=N/A speed=  20x    frame=17068 fps=479 q=-0.0 size=N/A time=00:11:51.87 bitrate=N/A speed=  20x    frame=17332 fps=480 q=-0.0 size=N/A time=00:12:02.88 bitrate=N/A speed=  20x    frame=17595 fps=480 q=-0.0 size=N/A time=00:12:13.85 bitrate=N/A speed=  20x    frame=17875 fps=481 q=-0.0 size=N/A time=00:12:25.53 bitrate=N/A speed=20.1x    frame=18137 fps=481 q=-0.0 size=N/A time=00:12:36.46 bitrate=N/A speed=20.1x    frame=18388 fps=481 q=-0.0 size=N/A time=00:12:46.93 bitrate=N/A speed=20.1x    frame=18646 fps=482 q=-0.0 size=N/A time=00:12:57.69 bitrate=N/A speed=20.1x    frame=18889 fps=482 q=-0.0 size=N/A time=00:13:07.82 bitrate=N/A speed=20.1x    frame=19145 fps=482 q=-0.0 size=N/A time=00:13:18.50 bitrate=N/A speed=20.1x    frame=19383 fps=481 q=-0.0 size=N/A time=00:13:28.43 bitrate=N/A speed=20.1x    frame=19608 fps=481 q=-0.0 size=N/A time=00:13:37.81 bitrate=N/A speed=20.1x    frame=19854 fps=481 q=-0.0 size=N/A time=00:13:48.07 bitrate=N/A speed=20.1x    frame=20099 fps=481 q=-0.0 size=N/A time=00:13:58.29 bitrate=N/A speed=20.1x    frame=20359 fps=481 q=-0.0 size=N/A time=00:14:09.13 bitrate=N/A speed=20.1x    frame=20618 fps=481 q=-0.0 size=N/A time=00:14:19.94 bitrate=N/A speed=20.1x    frame=20875 fps=482 q=-0.0 size=N/A time=00:14:30.66 bitrate=N/A speed=20.1x    frame=21128 fps=482 q=-0.0 size=N/A time=00:14:41.21 bitrate=N/A speed=20.1x    frame=21392 fps=482 q=-0.0 size=N/A time=00:14:52.22 bitrate=N/A speed=20.1x    frame=21643 fps=482 q=-0.0 size=N/A time=00:15:02.69 bitrate=N/A speed=20.1x    frame=21915 fps=483 q=-0.0 size=N/A time=00:15:14.03 bitrate=N/A speed=20.1x    frame=22164 fps=483 q=-0.0 size=N/A time=00:15:24.42 bitrate=N/A speed=20.1x    frame=22417 fps=483 q=-0.0 size=N/A time=00:15:34.97 bitrate=N/A speed=20.1x    frame=22672 fps=483 q=-0.0 size=N/A time=00:15:45.61 bitrate=N/A speed=20.1x    frame=22921 fps=483 q=-0.0 size=N/A time=00:15:55.99 bitrate=N/A speed=20.1x    frame=23167 fps=483 q=-0.0 size=N/A time=00:16:06.25 bitrate=N/A speed=20.1x    frame=23415 fps=483 q=-0.0 size=N/A time=00:16:16.60 bitrate=N/A speed=20.1x    frame=23644 fps=482 q=-0.0 size=N/A time=00:16:26.15 bitrate=N/A speed=20.1x    frame=23883 fps=482 q=-0.0 size=N/A time=00:16:36.12 bitrate=N/A speed=20.1x    frame=24144 fps=482 q=-0.0 size=N/A time=00:16:47.00 bitrate=N/A speed=20.1x    frame=24399 fps=482 q=-0.0 size=N/A time=00:16:57.64 bitrate=N/A speed=20.1x    frame=24649 fps=483 q=-0.0 size=N/A time=00:17:08.06 bitrate=N/A speed=20.1x    frame=24899 fps=483 q=-0.0 size=N/A time=00:17:18.49 bitrate=N/A speed=20.1x    frame=25172 fps=483 q=-0.0 size=N/A time=00:17:29.88 bitrate=N/A speed=20.1x    frame=25438 fps=483 q=-0.0 size=N/A time=00:17:40.97 bitrate=N/A speed=20.2x    frame=25701 fps=484 q=-0.0 size=N/A time=00:17:51.94 bitrate=N/A speed=20.2x    frame=25945 fps=484 q=-0.0 size=N/A time=00:18:02.12 bitrate=N/A speed=20.2x    frame=26210 fps=484 q=-0.0 size=N/A time=00:18:13.17 bitrate=N/A speed=20.2x    frame=26477 fps=484 q=-0.0 size=N/A time=00:18:24.31 bitrate=N/A speed=20.2x    frame=26726 fps=484 q=-0.0 size=N/A time=00:18:34.69 bitrate=N/A speed=20.2x    frame=26995 fps=484 q=-0.0 size=N/A time=00:18:45.91 bitrate=N/A speed=20.2x    frame=27238 fps=484 q=-0.0 size=N/A time=00:18:56.05 bitrate=N/A speed=20.2x    frame=27474 fps=484 q=-0.0 size=N/A time=00:19:05.89 bitrate=N/A speed=20.2x    frame=27739 fps=484 q=-0.0 size=N/A time=00:19:16.94 bitrate=N/A speed=20.2x    frame=27996 fps=485 q=-0.0 size=N/A time=00:19:27.66 bitrate=N/A speed=20.2x    frame=28259 fps=485 q=-0.0 size=N/A time=00:19:38.63 bitrate=N/A speed=20.2x    frame=28511 fps=485 q=-0.0 size=N/A time=00:19:49.14 bitrate=N/A speed=20.2x    frame=28767 fps=485 q=-0.0 size=N/A time=00:19:59.82 bitrate=N/A speed=20.2x    frame=29013 fps=485 q=-0.0 size=N/A time=00:20:10.08 bitrate=N/A speed=20.2x    frame=29224 fps=484 q=-0.0 size=N/A time=00:20:18.88 bitrate=N/A speed=20.2x    frame=29483 fps=484 q=-0.0 size=N/A time=00:20:29.68 bitrate=N/A speed=20.2x    frame=29753 fps=485 q=-0.0 size=N/A time=00:20:40.94 bitrate=N/A speed=20.2x    frame=30019 fps=485 q=-0.0 size=N/A time=00:20:52.04 bitrate=N/A speed=20.2x    frame=30256 fps=485 q=-0.0 size=N/A time=00:21:01.92 bitrate=N/A speed=20.2x    frame=30464 fps=484 q=-0.0 size=N/A time=00:21:10.60 bitrate=N/A speed=20.2x    frame=30675 fps=483 q=-0.0 size=N/A time=00:21:19.40 bitrate=N/A speed=20.2x    frame=30878 fps=483 q=-0.0 size=N/A time=00:21:27.86 bitrate=N/A speed=20.1x    frame=31038 fps=481 q=-0.0 size=N/A time=00:21:34.54 bitrate=N/A speed=20.1x    frame=31183 fps=480 q=-0.0 size=N/A time=00:21:40.59 bitrate=N/A speed=  20x    frame=31344 fps=478 q=-0.0 size=N/A time=00:21:47.30 bitrate=N/A speed=  20x    frame=31547 fps=478 q=-0.0 size=N/A time=00:21:55.77 bitrate=N/A speed=19.9x    frame=31745 fps=477 q=-0.0 size=N/A time=00:22:04.03 bitrate=N/A speed=19.9x    frame=31930 fps=476 q=-0.0 size=N/A time=00:22:11.74 bitrate=N/A speed=19.9x    frame=32095 fps=475 q=-0.0 size=N/A time=00:22:18.62 bitrate=N/A speed=19.8x    frame=32316 fps=475 q=-0.0 size=N/A time=00:22:27.84 bitrate=N/A speed=19.8x    frame=32553 fps=474 q=-0.0 size=N/A time=00:22:37.73 bitrate=N/A speed=19.8x    frame=32815 fps=475 q=-0.0 size=N/A time=00:22:48.65 bitrate=N/A speed=19.8x    frame=33078 fps=475 q=-0.0 size=N/A time=00:22:59.62 bitrate=N/A speed=19.8x    frame=33334 fps=475 q=-0.0 size=N/A time=00:23:10.30 bitrate=N/A speed=19.8x    frame=33554 fps=475 q=-0.0 size=N/A time=00:23:19.48 bitrate=N/A speed=19.8x    frame=33786 fps=475 q=-0.0 size=N/A time=00:23:29.15 bitrate=N/A speed=19.8x    frame=34059 fps=475 q=-0.0 size=N/A time=00:23:40.54 bitrate=N/A speed=19.8x    frame=34300 fps=475 q=-0.0 size=N/A time=00:23:50.59 bitrate=N/A speed=19.8x    frame=34537 fps=475 q=-0.0 size=N/A time=00:24:00.48 bitrate=N/A speed=19.8x    [Parsed_psnr_10 @ 000001c2ce9e7f40] PSNR y:48.262341 u:50.213754 v:50.595271 average:48.865109 min:38.110031 max:inf
[out#0/null @ 000001c2c18ad040] video:14903KiB audio:271276KiB subtitle:0KiB other streams:0KiB global headers:0KiB muxing overhead: unknown
frame=34684 fps=475 q=-0.0 Lsize=N/A time=00:24:06.61 bitrate=N/A speed=19.8x    
